HIERARCHY
ROOT Reference
{
  OFFSET 0 0 0
  CHANNELS 6 Xposition Yposition Zposition Zrotation Xrotation Yrotation
  JOINT Hips
  {
    OFFSET 251.394 724.17 483.536
    CHANNELS 3 Zrotation Xrotation Yrotation
    JOINT RightUpLeg
    {
      OFFSET -0.450515 -23.4426 -1.37224
      CHANNELS 3 Zrotation Xrotation Yrotation
      JOINT RightLeg
      {
        OFFSET 112.821 0.0872427 -0.321027
        CHANNELS 3 Zrotation Xrotation Yrotation
        JOINT RightFoot
        {
          OFFSET 105.718 0.000193788 0.0213165
          CHANNELS 3 Zrotation Xrotation Yrotation
          JOINT RightToeBase
          {
            OFFSET 37.638 -0.000116272 0.00224792
            CHANNELS 3 Zrotation Xrotation Yrotation
            JOINT RightToeEnd
            {
              OFFSET 21.2112 0.114605 -0.000138184
              CHANNELS 3 Zrotation Xrotation Yrotation
              End Site
              {
                OFFSET 0 0 0
              }
            }
          }
        }
      }
    }
    JOINT LeftUpLeg
    {
      OFFSET -0.449508 23.4315 -1.37054
      CHANNELS 3 Zrotation Xrotation Yrotation
      JOINT LeftLeg
      {
        OFFSET 112.821 -0.0485242 -0.372458
        CHANNELS 3 Zrotation Xrotation Yrotation
        JOINT LeftFoot
        {
          OFFSET 105.716 0.00496094 -0.0229443
          CHANNELS 3 Zrotation Xrotation Yrotation
          JOINT LeftToeBase
          {
            OFFSET 37.639 0 0.00158905
            CHANNELS 3 Zrotation Xrotation Yrotation
            JOINT LeftToeEnd
            {
              OFFSET 21.2113 -0.125031 -0.00017438
              CHANNELS 3 Zrotation Xrotation Yrotation
              End Site
              {
                OFFSET 0 0 0
              }
            }
          }
        }
      }
    }
    JOINT Spine
    {
      OFFSET -5.01225 0.000463591 -9.60395
      CHANNELS 3 Zrotation Xrotation Yrotation
      JOINT Spine1
      {
        OFFSET 26.0222 -0.000271301 -0.000155029
        CHANNELS 3 Zrotation Xrotation Yrotation
        JOINT Spine2
        {
          OFFSET 27.173 -0.000155029 -0.000310058
          CHANNELS 3 Zrotation Xrotation Yrotation
          JOINT Spine3
          {
            OFFSET 36.3953 -0.000232544 7.75146e-005
            CHANNELS 3 Zrotation Xrotation Yrotation
            JOINT Neck
            {
              OFFSET 36.4331 0 -3.00261
              CHANNELS 3 Zrotation Xrotation Yrotation
              JOINT Head
              {
                OFFSET 23.0407 -0.000232544 -0.000310058
                CHANNELS 3 Zrotation Xrotation Yrotation
                End Site
                {
                  OFFSET 0 0 0
                }
              }
            }
            JOINT LeftShoulder
            {
              OFFSET 20.1317 6.74168 -12.6061
              CHANNELS 3 Zrotation Xrotation Yrotation
              JOINT LeftArm
              {
                OFFSET 34.2172 -5.81359e-005 7.75146e-005
                CHANNELS 3 Zrotation Xrotation Yrotation
                JOINT LeftForeArm
                {
                  OFFSET 65.4129 -0.0821605 0.0585235
                  CHANNELS 3 Zrotation Xrotation Yrotation
                  JOINT LeftHand
                  {
                    OFFSET 67.3883 0.0359667 0.0112396
                    CHANNELS 3 Zrotation Xrotation Yrotation
                    JOINT LeftHandThumb1
                    {
                      OFFSET 8.78386 2.85353 -6.05362
                      CHANNELS 3 Zrotation Xrotation Yrotation
                      JOINT LeftHandThumb2
                      {
                        OFFSET 8.25498 -0.000116272 -0.000174407
                        CHANNELS 3 Zrotation Xrotation Yrotation
                        JOINT LeftHandThumb3
                        {
                          OFFSET 7.24822 0.000310058 5.81358e-005
                          CHANNELS 3 Zrotation Xrotation Yrotation
                          JOINT LeftHandThumb4
                          {
                            OFFSET 7.0004 -3.87568e-005 -0.000310057
                            CHANNELS 3 Zrotation Xrotation Yrotation
                            End Site
                            {
                              OFFSET 0 0 0
                            }
                          }
                        }
                      }
                    }
                    JOINT LeftHandIndex1
                    {
                      OFFSET 24.0991 -1.01537 -5.40558
                      CHANNELS 3 Zrotation Xrotation Yrotation
                      JOINT LeftHandIndex2
                      {
                        OFFSET 7.26759 -0.000290679 -0.000465086
                        CHANNELS 3 Zrotation Xrotation Yrotation
                        JOINT LeftHandIndex3
                        {
                          OFFSET 7.13628 -1.93787e-005 0.000232543
                          CHANNELS 3 Zrotation Xrotation Yrotation
                          JOINT LeftHandIndex4
                          {
                            OFFSET 5.46699 9.68932e-005 -0.000387571
                            CHANNELS 3 Zrotation Xrotation Yrotation
                            End Site
                            {
                              OFFSET 0 0 0
                            }
                          }
                        }
                      }
                    }
                    JOINT LeftHandMiddle1
                    {
                      OFFSET 24.4604 -2.52837 0.918567
                      CHANNELS 3 Zrotation Xrotation Yrotation
                      JOINT LeftHandMiddle2
                      {
                        OFFSET 7.41627 -5.81359e-005 0.000116271
                        CHANNELS 3 Zrotation Xrotation Yrotation
                        JOINT LeftHandMiddle3
                        {
                          OFFSET 8.76829 3.87573e-005 -7.75142e-005
                          CHANNELS 3 Zrotation Xrotation Yrotation
                          JOINT LeftHandMiddle4
                          {
                            OFFSET 6.07588 -0.00013565 -5.81356e-005
                            CHANNELS 3 Zrotation Xrotation Yrotation
                            End Site
                            {
                              OFFSET 0 0 0
                            }
                          }
                        }
                      }
                    }
                    JOINT LeftHandRing1
                    {
                      OFFSET 22.465 -1.97467 6.3466
                      CHANNELS 3 Zrotation Xrotation Yrotation
                      JOINT LeftHandRing2
                      {
                        OFFSET 7.36666 -0.000232544 0.000387571
                        CHANNELS 3 Zrotation Xrotation Yrotation
                        JOINT LeftHandRing3
                        {
                          OFFSET 8.07624 -0.000465087 -0.000203475
                          CHANNELS 3 Zrotation Xrotation Yrotation
                          JOINT LeftHandRing4
                          {
                            OFFSET 6.04433 0.00013565 3.87571e-005
                            CHANNELS 3 Zrotation Xrotation Yrotation
                            End Site
                            {
                              OFFSET 0 0 0
                            }
                          }
                        }
                      }
                    }
                    JOINT LeftHandPinky1
                    {
                      OFFSET 19.5278 0.352933 10.4295
                      CHANNELS 3 Zrotation Xrotation Yrotation
                      JOINT LeftHandPinky2
                      {
                        OFFSET 6.16525 5.8136e-005 -0.000251921
                        CHANNELS 3 Zrotation Xrotation Yrotation
                        JOINT LeftHandPinky3
                        {
                          OFFSET 6.14448 -0.000329434 -0.00510625
                          CHANNELS 3 Zrotation Xrotation Yrotation
                          JOINT LeftHandPinky4
                          {
                            OFFSET 4.98555 0.000116272 0.000116271
                            CHANNELS 3 Zrotation Xrotation Yrotation
                            End Site
                            {
                              OFFSET 0 0 0
                            }
                          }
                        }
                      }
                    }
                  }
                }
              }
            }
            JOINT RightShoulder
            {
              OFFSET 20.1309 -6.74152 -12.6063
              CHANNELS 3 Zrotation Xrotation Yrotation
              JOINT RightArm
              {
                OFFSET 34.2171 7.75146e-005 7.75146e-005
                CHANNELS 3 Zrotation Xrotation Yrotation
                JOINT RightForeArm
                {
                  OFFSET 65.4492 0.242543 -0.176501
                  CHANNELS 3 Zrotation Xrotation Yrotation
                  JOINT RightHand
                  {
                    OFFSET 67.3888 -0.0867388 0.0597442
                    CHANNELS 3 Zrotation Xrotation Yrotation
                    JOINT RightHandThumb1
                    {
                      OFFSET 8.78307 -2.85357 -6.05302
                      CHANNELS 3 Zrotation Xrotation Yrotation
                      JOINT RightHandThumb2
                      {
                        OFFSET 8.25493 -7.75145e-005 0
                        CHANNELS 3 Zrotation Xrotation Yrotation
                        JOINT RightHandThumb3
                        {
                          OFFSET 7.24797 -0.000174408 0.000155029
                          CHANNELS 3 Zrotation Xrotation Yrotation
                          JOINT RightHandThumb4
                          {
                            OFFSET 7.00062 0 0
                            CHANNELS 3 Zrotation Xrotation Yrotation
                            End Site
                            {
                              OFFSET 0 0 0
                            }
                          }
                        }
                      }
                    }
                    JOINT RightHandIndex1
                    {
                      OFFSET 24.0991 1.01525 -5.40578
                      CHANNELS 3 Zrotation Xrotation Yrotation
                      JOINT RightHandIndex2
                      {
                        OFFSET 7.26773 7.75144e-005 0.000232543
                        CHANNELS 3 Zrotation Xrotation Yrotation
                        JOINT RightHandIndex3
                        {
                          OFFSET 7.13572 -0.000310058 3.87571e-005
                          CHANNELS 3 Zrotation Xrotation Yrotation
                          JOINT RightHandIndex4
                          {
                            OFFSET 5.46717 0 3.87572e-005
                            CHANNELS 3 Zrotation Xrotation Yrotation
                            End Site
                            {
                              OFFSET 0 0 0
                            }
                          }
                        }
                      }
                    }
                    JOINT RightHandMiddle1
                    {
                      OFFSET 24.4603 2.52899 0.918547
                      CHANNELS 3 Zrotation Xrotation Yrotation
                      JOINT RightHandMiddle2
                      {
                        OFFSET 7.41641 -0.000116272 -0.000116272
                        CHANNELS 3 Zrotation Xrotation Yrotation
                        JOINT RightHandMiddle3
                        {
                          OFFSET 8.76765 -3.87577e-005 0.000232543
                          CHANNELS 3 Zrotation Xrotation Yrotation
                          JOINT RightHandMiddle4
                          {
                            OFFSET 6.07609 -0.000193787 -0.000116271
                            CHANNELS 3 Zrotation Xrotation Yrotation
                            End Site
                            {
                              OFFSET 0 0 0
                            }
                          }
                        }
                      }
                    }
                    JOINT RightHandRing1
                    {
                      OFFSET 22.465 1.97571 6.34696
                      CHANNELS 3 Zrotation Xrotation Yrotation
                      JOINT RightHandRing2
                      {
                        OFFSET 7.36684 0.000193786 0.000155029
                        CHANNELS 3 Zrotation Xrotation Yrotation
                        JOINT RightHandRing3
                        {
                          OFFSET 8.07614 -0.000271301 0
                          CHANNELS 3 Zrotation Xrotation Yrotation
                          JOINT RightHandRing4
                          {
                            OFFSET 6.04468 0.000232543 0
                            CHANNELS 3 Zrotation Xrotation Yrotation
                            End Site
                            {
                              OFFSET 0 0 0
                            }
                          }
                        }
                      }
                    }
                    JOINT RightHandPinky1
                    {
                      OFFSET 19.5277 -0.352346 10.4296
                      CHANNELS 3 Zrotation Xrotation Yrotation
                      JOINT RightHandPinky2
                      {
                        OFFSET 6.16508 0 0.000232543
                        CHANNELS 3 Zrotation Xrotation Yrotation
                        JOINT RightHandPinky3
                        {
                          OFFSET 6.14396 -0.000155048 -0.0048834
                          CHANNELS 3 Zrotation Xrotation Yrotation
                          JOINT RightHandPinky4
                          {
                            OFFSET 4.98577 -7.75146e-005 -7.75143e-005
                            CHANNELS 3 Zrotation Xrotation Yrotation
                            End Site
                            {
                              OFFSET 0 0 0
                            }
                          }
                        }
                      }
                    }
                  }
                }
              }
            }
          }
        }
      }
    }
  }
}
MOTION
Frames:	5
Frame Time:	0.0333333
0 0 0 -90 -7.01671e-015 -180 121.744 -51.6226 3.44711 159.425 -11.6272 -41.6363 4.8022 -3.28369 -93.8587 4.49566 4.88418 31.9973 -0.557752 0.163485 51.8011 -3.0507e-005 -1.47546e-005 -86.4974 -176.123 5.28681 -105.937 0.00433458 0.0684984 -3.68007 13.4157 -4.11082 30.0343 0.545562 -0.235844 45.3108 0.000101493 -0.000118213 -86.4974 4.78366e-005 3.21584e-005 134.629 -12.3458 -6.3679 -4.75016 -11.8049 -5.15076 -13.8589 -0.0867828 0.44452 -4.57882 2.92692 -6.6638 32.6295 -21.8387 4.62087 51.6348 86.6925 26.1226 -0.0413034 35.3672 23.425 103.048 -11.2808 11.6029 51.4286 3.92979 -63.9502 22.7769 -142.213 -51.8016 169.894 0.000388519 -7.11409e-005 16.9256 0.000213808 3.01562e-005 25.7996 0.000189535 -0.00135855 -0.000150262 95.0301 68.1708 -95.5602 0.000304224 -0.000873547 56.5285 0.00178753 0.000121778 58.6579 0.00152142 -0.000583538 -0.000952323 105.983 79.9219 -76.0641 0.000330408 -0.000209815 65.9843 0.00133462 -4.50706e-006 58.5701 -0.000565365 -0.000319149 -0.0661454 16.1786 83.9647 34.4447 0.000783267 -0.000819634 55.5554 0.00188435 0.00112002 57.7157 -0.00180011 -0.000658614 -0.0662186 -13.4556 78.0186 70.4018 0.0016408 -0.000647959 51.2477 0.000717725 0.00054885 49.3609 -4.44034e-005 -3.33767e-005 -0.0679211 -76.7845 -22.7034 -19.2791 -20.4765 31.17 83.0316 20.789 -18.1483 21.2323 -174.315 50.074 -170.144 142.213 51.8016 169.894 -0.000190052 0.000101173 16.9256 8.32715e-005 8.00619e-005 18.8543 -0.00024414 -3.05176e-005 -180 -95.0299 -68.1709 -102.33 -0.000196365 -0.000339959 49.758 1.58521e-005 -5.33226e-005 45.1943 -3.05175e-005 -0.000152588 180 -105.983 -79.9218 -76.0642 -0.000216633 -3.58258e-005 65.9844 -0.000328633 0.000356424 58.5701 3.05175e-005 -0.00024414 -180 -16.1796 -83.9647 34.4438 -0.00014325 0.000276317 55.5556 -0.000217018 -0.00012128 57.7157 -6.1035e-005 -0.000198364 180 13.4557 -78.0188 70.402 -0.000389221 0.000610474 51.2477 -7.09686e-005 -2.66053e-005 49.3611 -6.1035e-005 -0.000152588 180 
0 0 0 -90 -7.01671e-015 -180 126.871 -47.54 11.9319 161.342 -11.4785 -40.3435 5.92962 -3.84233 -98.0503 6.57005 5.87301 34.369 -0.556768 0.166793 51.4581 -2.79984e-005 -3.25265e-005 -86.4974 -177.617 6.01488 -105.741 0.00390585 0.0727911 -3.02364 14.2866 -4.51286 29.9751 0.546115 -0.234571 45.4452 0.000102069 -0.000156589 -86.4974 -1.74809e-005 -3.19935e-005 134.34 -12.724 -6.96433 -4.95639 -12.9797 -5.56996 -14.3809 -0.0573939 0.295053 -4.78479 2.25826 -4.48853 35.5827 -21.6758 6.03908 51.2606 87.1288 26.1487 0.0465352 35.2039 23.4528 102.776 -10.8812 12.7828 51.6271 6.71798 -65.3789 26.3493 -142.213 -51.8015 169.894 0.000388272 -9.50577e-005 16.9256 0.000210594 -4.58468e-005 25.7996 0.000189533 -0.00138184 -0.000150262 95.03 68.1708 -95.5602 0.000306818 -0.00087889 56.5285 0.00179724 8.31677e-005 58.6579 0.00152142 -0.000627405 -0.000952323 105.983 79.9219 -76.0639 0.000336246 -0.000232053 65.9843 0.00130569 0.000240692 58.5701 -0.000567885 -0.000318783 -0.0664353 16.1787 83.9647 34.4447 0.000790731 -0.000820635 55.5554 0.00186168 0.00111022 57.7157 -0.00179582 -0.000660301 -0.0665068 -13.4558 78.0187 70.4019 0.00164505 -0.000434136 51.2477 0.000699139 0.000569855 49.3609 -4.35294e-005 -3.42535e-005 -0.0682054 -78.9791 -22.8295 -19.7674 -18.8305 32.3474 82.4857 22.2441 -20.9942 23.0943 -173.385 45.9091 -170.742 142.213 51.8016 169.894 -0.000189748 0.000100652 16.9256 8.46999e-005 7.72523e-005 18.8543 -0.00024414 -3.05176e-005 -180 -95.0295 -68.1709 -102.33 -0.000197177 -0.000224212 49.758 8.1805e-006 -7.92673e-005 45.1944 -3.05175e-005 -0.000152588 180 -105.983 -79.9218 -76.0642 -0.000218625 -0.000101649 65.9844 -0.00033114 0.000344399 58.5701 3.05175e-005 -4.57763e-005 -180 -16.1797 -83.9647 34.4438 -0.000135632 0.000240327 55.5556 -0.000218182 -0.000123413 57.7157 -6.1035e-005 -0.000213623 180 13.4557 -78.0188 70.4021 -0.00037206 0.000596718 51.2477 -8.11361e-005 -7.6006e-005 49.3611 -6.1035e-005 -0.000167846 180 
0 0 0 -90 -7.01671e-015 -180 130.693 -43.1882 19.4072 163.498 -11.1725 -39.2727 6.64716 -4.98136 -101.574 8.05332 7.05981 36.3955 -0.554587 0.174132 50.7038 -2.64015e-005 -6.62088e-005 -86.4974 -179.074 6.99211 -105.569 0.00349595 0.0726108 -2.46611 14.3782 -4.31353 29.4098 0.547334 -0.231694 45.7462 0.000104173 -0.000232954 -86.4974 -2.62829e-005 -1.05499e-005 133.741 -13.3918 -7.76449 -5.10953 -13.6046 -6.15266 -14.9032 0.124812 -0.698241 -4.96703 0.962689 -1.64087 39.1559 -21.5295 7.56668 50.273 87.4574 26.07 -0.829178 35.0673 23.767 102.686 -10.6452 14.1367 51.075 10.8516 -66.8156 31.2908 -142.213 -51.8015 169.894 0.000386443 -0.00014422 16.9256 0.000204843 0.000126812 25.7995 0.000189535 -0.00143008 -0.000150261 95.0299 68.1708 -95.5601 0.000309679 -0.000928714 56.5285 0.00181022 7.18825e-006 58.6578 0.00152142 -0.00071567 -0.00095232 105.982 79.922 -76.0635 0.000344739 -0.000278276 65.9843 0.00126649 0.000265612 58.5701 -0.000565273 -0.000319122 -0.0667257 16.1786 83.9647 34.4447 0.000800883 -0.000820195 55.5554 0.00183952 0.00106898 57.7157 -0.0017881 -0.000659795 -0.0667932 -13.4558 78.0187 70.4019 0.00165564 -0.000440849 51.2477 0.00067441 0.00059228 49.3609 -4.69165e-005 -3.50474e-005 -0.0684879 -81.4562 -23.1256 -19.2607 -17.7421 33.2859 82.7704 23.2061 -23.0929 23.3902 -171.636 43.637 -172.51 142.213 51.8016 169.894 -0.000189403 0.000100294 16.9256 8.47711e-005 7.30352e-005 18.8543 -0.00024414 -3.05176e-005 -180 -95.0296 -68.1709 -102.33 -0.000197915 -0.000228938 49.758 1.65282e-005 -0.000103107 45.1943 -3.05175e-005 -0.000152588 180 -105.983 -79.9218 -76.0642 -0.000218944 2.71359e-005 65.9844 -0.000333039 0.000330013 58.5701 3.05175e-005 -4.57763e-005 -180 -16.1798 -83.9647 34.4436 -0.000130265 0.000168515 55.5556 -0.000218445 -0.000132362 57.7157 -6.10351e-005 -0.000213623 180 13.4558 -78.0189 70.4021 -0.000359372 0.000579529 51.2476 -7.39373e-005 8.14827e-005 49.3611 -6.1035e-005 -0.000198364 180 
0 0 0 -90 -7.01671e-015 -180 133.908 -38.3346 26.1628 165.54 -10.446 -38.9093 7.08384 -5.8887 -104.389 9.02406 8.29557 37.4369 -0.554837 0.173326 50.7867 -2.53435e-005 -0.000135562 -86.4974 -179.305 7.7696 -105.716 0.00361343 0.0849413 -2.00574 13.0147 -4.47874 29.2372 0.546667 -0.233268 45.5795 0.000107085 -8.80818e-005 -86.4974 -2.35879e-005 2.09523e-005 133.359 -14.2666 -8.42662 -5.19892 -13.8784 -6.33955 -15.3545 0.289975 -1.62963 -5.12999 -0.520766 0.812488 41.6699 -21.1206 8.79211 49.5034 87.1825 25.8947 -1.84058 34.7894 24.8222 103.523 -11.075 15.196 49.865 16.5997 -68.0318 37.7328 -142.213 -51.8015 169.894 0.00038565 -0.000243939 16.9256 0.000201101 0.00012635 25.7995 0.000189535 -0.00152742 -0.000150261 95.0298 68.1708 -95.5599 0.000312656 -0.00102951 56.5285 0.00182921 0.000139169 58.6578 0.00147254 -0.000549856 -0.000946562 105.983 79.9219 -76.0644 0.000355076 -0.000377864 65.9843 0.0012421 0.00028161 58.5701 -0.000566093 -0.000319321 -0.067016 16.1784 83.9646 34.4449 0.000814742 -0.00082662 55.5554 0.00182624 0.00122879 57.7157 -0.00178552 -0.000658006 -0.0670852 -13.4557 78.0187 70.4019 0.00167239 -0.000453109 51.2477 0.000654429 0.000608676 49.3609 -4.51766e-005 -3.49377e-005 -0.0687722 -84.0588 -23.3875 -18.8494 -17.1579 34.6057 83.2259 22.8887 -23.499 23.4885 -169.783 43.7083 -174.497 142.213 51.8017 169.894 -0.000189272 9.77935e-005 16.9256 8.32389e-005 6.47302e-005 18.8543 -0.00024414 -4.57763e-005 180 -95.0296 -68.1709 -102.33 -0.000197515 -0.000231921 49.758 2.24491e-005 -0.000157739 45.1943 -3.05175e-005 -0.000152588 180 -105.983 -79.9218 -76.0643 -0.000217467 1.54421e-005 65.9844 -0.000336732 0.000293973 58.5701 3.05175e-005 -6.1035e-005 -180 -16.18 -83.9648 34.4435 -0.000122168 0.000297873 55.5556 -0.00021846 -0.000162676 57.7157 -6.10351e-005 -0.000213623 180 13.4556 -78.0188 70.402 -0.000348977 0.00055853 51.2477 -7.67333e-005 9.15181e-005 49.3611 -6.1035e-005 -0.00024414 180 
0 0 0 -90 -7.01671e-015 -180 136.523 -33.377 31.9867 167.34 -9.85469 -39.595 7.29505 -6.38252 -105.907 8.92711 8.83558 37.5695 -0.555572 0.170714 51.0534 -2.3802e-005 8.4561e-006 -86.4974 -179.666 8.2353 -106.242 0.00448552 0.105612 -1.95424 11.9186 -4.79354 29.3436 0.545991 -0.234839 45.4127 0.000110245 -9.4635e-005 -86.4974 1.10841e-005 1.04869e-005 133.414 -15.0907 -8.8259 -5.2312 -13.997 -6.30208 -15.5432 0.370375 -2.1738 -5.5708 -1.6687 2.49412 42.7113 -20.5915 9.1841 49.1716 86.4445 25.8717 -1.71599 34.287 25.5273 104.739 -11.5712 16.1444 48.6261 22.8521 -69.3194 44.8344 -142.213 -51.8016 169.894 0.000385916 -4.10672e-005 16.9256 0.000197384 0.000121866 25.7995 0.000186972 -0.00133274 -0.000151542 95.0302 68.1708 -95.5603 0.000315734 -0.000858767 56.5285 0.00186057 0.00012022 58.6578 0.00147254 -0.000560915 -0.000946563 105.983 79.9219 -76.0643 0.000368787 -0.000183346 65.9843 0.00124341 0.000279806 58.5701 -0.000564389 -0.000319637 -0.0673074 16.1789 83.9647 34.4444 0.000836935 -0.000845886 55.5554 0.00182372 0.00125045 57.7157 -0.00177955 -0.000659683 -0.0673695 -13.4557 78.0187 70.4018 0.00170415 -0.000483788 51.2477 0.000646204 0.000611317 49.3609 -4.60124e-005 -3.74288e-005 -0.0690573 -86.0326 -23.4928 -18.983 -16.6257 35.8077 82.5294 22.5332 -22.7517 24.9299 -169.074 44.9144 -175.516 142.213 51.8015 169.894 -0.00019015 9.54521e-005 16.9256 8.33077e-005 4.73551e-005 18.8543 -0.00024414 -7.62939e-005 180 -95.0298 -68.1709 -102.33 -0.000198068 -0.000241879 49.758 2.47725e-005 -0.000271097 45.1943 -3.05175e-005 -0.000167846 180 -105.983 -79.9218 -76.0644 -0.000216548 -5.95805e-006 65.9844 -0.00033735 0.00022633 58.5701 3.05175e-005 -6.1035e-005 -180 -16.1802 -83.9649 34.4432 -0.000116694 0.000287212 55.5555 -0.00021893 -0.000232661 57.7157 -6.10351e-005 -0.000228881 180 13.4556 -78.0188 70.4019 -0.000339204 0.000529936 51.2476 -7.68671e-005 9.9317e-005 49.3611 -6.1035e-005 -0.000350952 180 
